%
M48
M72
T01C0.0130
T02C0.0236
T03C0.0335
T04C0.0394
T05C0.0906
T06C0.1260
%
T01
X9650Y6664
X9650Y8042
X11865Y10551
X13046Y11290
X13341Y10699
X15950Y7943
X14030Y5335
X12308Y5679
X11767Y5384
X12652Y7205
T02
X8223Y7549
X6993Y7943
X8076Y9912
X8617Y12422
T03
X6875Y8573
X6875Y10069
X12249Y4872
X13745Y4872
T04
X11513Y14292
X12513Y14292
T05
X16146Y6723
X16146Y11920
T06
X6599Y4597
X16048Y4597
X16048Y14046
X6599Y14046
M30
