G75*
%MOIN*%
%OFA0B0*%
%FSLAX25Y25*%
%IPPOS*%
%LPD*%
%AMOC8*
5,1,8,0,0,1.08239X$1,22.5*
%
%ADD10C,0.00000*%
%ADD11C,0.00600*%
%ADD12C,0.00500*%
%ADD13R,0.00787X0.00787*%
%ADD14C,0.01200*%
%ADD15C,0.00800*%
D10*
X0054181Y0045967D02*
X0054181Y0140455D01*
X0059693Y0140455D02*
X0059695Y0140613D01*
X0059701Y0140771D01*
X0059711Y0140929D01*
X0059725Y0141087D01*
X0059743Y0141244D01*
X0059764Y0141401D01*
X0059790Y0141557D01*
X0059820Y0141713D01*
X0059853Y0141868D01*
X0059891Y0142021D01*
X0059932Y0142174D01*
X0059977Y0142326D01*
X0060026Y0142477D01*
X0060079Y0142626D01*
X0060135Y0142774D01*
X0060195Y0142920D01*
X0060259Y0143065D01*
X0060327Y0143208D01*
X0060398Y0143350D01*
X0060472Y0143490D01*
X0060550Y0143627D01*
X0060632Y0143763D01*
X0060716Y0143897D01*
X0060805Y0144028D01*
X0060896Y0144157D01*
X0060991Y0144284D01*
X0061088Y0144409D01*
X0061189Y0144531D01*
X0061293Y0144650D01*
X0061400Y0144767D01*
X0061510Y0144881D01*
X0061623Y0144992D01*
X0061738Y0145101D01*
X0061856Y0145206D01*
X0061977Y0145308D01*
X0062100Y0145408D01*
X0062226Y0145504D01*
X0062354Y0145597D01*
X0062484Y0145687D01*
X0062617Y0145773D01*
X0062752Y0145857D01*
X0062888Y0145936D01*
X0063027Y0146013D01*
X0063168Y0146085D01*
X0063310Y0146155D01*
X0063454Y0146220D01*
X0063600Y0146282D01*
X0063747Y0146340D01*
X0063896Y0146395D01*
X0064046Y0146446D01*
X0064197Y0146493D01*
X0064349Y0146536D01*
X0064502Y0146575D01*
X0064657Y0146611D01*
X0064812Y0146642D01*
X0064968Y0146670D01*
X0065124Y0146694D01*
X0065281Y0146714D01*
X0065439Y0146730D01*
X0065596Y0146742D01*
X0065755Y0146750D01*
X0065913Y0146754D01*
X0066071Y0146754D01*
X0066229Y0146750D01*
X0066388Y0146742D01*
X0066545Y0146730D01*
X0066703Y0146714D01*
X0066860Y0146694D01*
X0067016Y0146670D01*
X0067172Y0146642D01*
X0067327Y0146611D01*
X0067482Y0146575D01*
X0067635Y0146536D01*
X0067787Y0146493D01*
X0067938Y0146446D01*
X0068088Y0146395D01*
X0068237Y0146340D01*
X0068384Y0146282D01*
X0068530Y0146220D01*
X0068674Y0146155D01*
X0068816Y0146085D01*
X0068957Y0146013D01*
X0069096Y0145936D01*
X0069232Y0145857D01*
X0069367Y0145773D01*
X0069500Y0145687D01*
X0069630Y0145597D01*
X0069758Y0145504D01*
X0069884Y0145408D01*
X0070007Y0145308D01*
X0070128Y0145206D01*
X0070246Y0145101D01*
X0070361Y0144992D01*
X0070474Y0144881D01*
X0070584Y0144767D01*
X0070691Y0144650D01*
X0070795Y0144531D01*
X0070896Y0144409D01*
X0070993Y0144284D01*
X0071088Y0144157D01*
X0071179Y0144028D01*
X0071268Y0143897D01*
X0071352Y0143763D01*
X0071434Y0143627D01*
X0071512Y0143490D01*
X0071586Y0143350D01*
X0071657Y0143208D01*
X0071725Y0143065D01*
X0071789Y0142920D01*
X0071849Y0142774D01*
X0071905Y0142626D01*
X0071958Y0142477D01*
X0072007Y0142326D01*
X0072052Y0142174D01*
X0072093Y0142021D01*
X0072131Y0141868D01*
X0072164Y0141713D01*
X0072194Y0141557D01*
X0072220Y0141401D01*
X0072241Y0141244D01*
X0072259Y0141087D01*
X0072273Y0140929D01*
X0072283Y0140771D01*
X0072289Y0140613D01*
X0072291Y0140455D01*
X0072289Y0140297D01*
X0072283Y0140139D01*
X0072273Y0139981D01*
X0072259Y0139823D01*
X0072241Y0139666D01*
X0072220Y0139509D01*
X0072194Y0139353D01*
X0072164Y0139197D01*
X0072131Y0139042D01*
X0072093Y0138889D01*
X0072052Y0138736D01*
X0072007Y0138584D01*
X0071958Y0138433D01*
X0071905Y0138284D01*
X0071849Y0138136D01*
X0071789Y0137990D01*
X0071725Y0137845D01*
X0071657Y0137702D01*
X0071586Y0137560D01*
X0071512Y0137420D01*
X0071434Y0137283D01*
X0071352Y0137147D01*
X0071268Y0137013D01*
X0071179Y0136882D01*
X0071088Y0136753D01*
X0070993Y0136626D01*
X0070896Y0136501D01*
X0070795Y0136379D01*
X0070691Y0136260D01*
X0070584Y0136143D01*
X0070474Y0136029D01*
X0070361Y0135918D01*
X0070246Y0135809D01*
X0070128Y0135704D01*
X0070007Y0135602D01*
X0069884Y0135502D01*
X0069758Y0135406D01*
X0069630Y0135313D01*
X0069500Y0135223D01*
X0069367Y0135137D01*
X0069232Y0135053D01*
X0069096Y0134974D01*
X0068957Y0134897D01*
X0068816Y0134825D01*
X0068674Y0134755D01*
X0068530Y0134690D01*
X0068384Y0134628D01*
X0068237Y0134570D01*
X0068088Y0134515D01*
X0067938Y0134464D01*
X0067787Y0134417D01*
X0067635Y0134374D01*
X0067482Y0134335D01*
X0067327Y0134299D01*
X0067172Y0134268D01*
X0067016Y0134240D01*
X0066860Y0134216D01*
X0066703Y0134196D01*
X0066545Y0134180D01*
X0066388Y0134168D01*
X0066229Y0134160D01*
X0066071Y0134156D01*
X0065913Y0134156D01*
X0065755Y0134160D01*
X0065596Y0134168D01*
X0065439Y0134180D01*
X0065281Y0134196D01*
X0065124Y0134216D01*
X0064968Y0134240D01*
X0064812Y0134268D01*
X0064657Y0134299D01*
X0064502Y0134335D01*
X0064349Y0134374D01*
X0064197Y0134417D01*
X0064046Y0134464D01*
X0063896Y0134515D01*
X0063747Y0134570D01*
X0063600Y0134628D01*
X0063454Y0134690D01*
X0063310Y0134755D01*
X0063168Y0134825D01*
X0063027Y0134897D01*
X0062888Y0134974D01*
X0062752Y0135053D01*
X0062617Y0135137D01*
X0062484Y0135223D01*
X0062354Y0135313D01*
X0062226Y0135406D01*
X0062100Y0135502D01*
X0061977Y0135602D01*
X0061856Y0135704D01*
X0061738Y0135809D01*
X0061623Y0135918D01*
X0061510Y0136029D01*
X0061400Y0136143D01*
X0061293Y0136260D01*
X0061189Y0136379D01*
X0061088Y0136501D01*
X0060991Y0136626D01*
X0060896Y0136753D01*
X0060805Y0136882D01*
X0060716Y0137013D01*
X0060632Y0137147D01*
X0060550Y0137283D01*
X0060472Y0137420D01*
X0060398Y0137560D01*
X0060327Y0137702D01*
X0060259Y0137845D01*
X0060195Y0137990D01*
X0060135Y0138136D01*
X0060079Y0138284D01*
X0060026Y0138433D01*
X0059977Y0138584D01*
X0059932Y0138736D01*
X0059891Y0138889D01*
X0059853Y0139042D01*
X0059820Y0139197D01*
X0059790Y0139353D01*
X0059764Y0139509D01*
X0059743Y0139666D01*
X0059725Y0139823D01*
X0059711Y0139981D01*
X0059701Y0140139D01*
X0059695Y0140297D01*
X0059693Y0140455D01*
X0054181Y0140455D02*
X0054184Y0140740D01*
X0054195Y0141026D01*
X0054212Y0141311D01*
X0054236Y0141595D01*
X0054267Y0141879D01*
X0054305Y0142162D01*
X0054350Y0142443D01*
X0054401Y0142724D01*
X0054459Y0143004D01*
X0054524Y0143282D01*
X0054596Y0143558D01*
X0054674Y0143832D01*
X0054759Y0144105D01*
X0054851Y0144375D01*
X0054949Y0144643D01*
X0055053Y0144909D01*
X0055164Y0145172D01*
X0055281Y0145432D01*
X0055404Y0145690D01*
X0055534Y0145944D01*
X0055670Y0146195D01*
X0055811Y0146443D01*
X0055959Y0146687D01*
X0056112Y0146928D01*
X0056272Y0147164D01*
X0056437Y0147397D01*
X0056607Y0147626D01*
X0056783Y0147851D01*
X0056965Y0148071D01*
X0057151Y0148287D01*
X0057343Y0148498D01*
X0057540Y0148705D01*
X0057742Y0148907D01*
X0057949Y0149104D01*
X0058160Y0149296D01*
X0058376Y0149482D01*
X0058596Y0149664D01*
X0058821Y0149840D01*
X0059050Y0150010D01*
X0059283Y0150175D01*
X0059519Y0150335D01*
X0059760Y0150488D01*
X0060004Y0150636D01*
X0060252Y0150777D01*
X0060503Y0150913D01*
X0060757Y0151043D01*
X0061015Y0151166D01*
X0061275Y0151283D01*
X0061538Y0151394D01*
X0061804Y0151498D01*
X0062072Y0151596D01*
X0062342Y0151688D01*
X0062615Y0151773D01*
X0062889Y0151851D01*
X0063165Y0151923D01*
X0063443Y0151988D01*
X0063723Y0152046D01*
X0064004Y0152097D01*
X0064285Y0152142D01*
X0064568Y0152180D01*
X0064852Y0152211D01*
X0065136Y0152235D01*
X0065421Y0152252D01*
X0065707Y0152263D01*
X0065992Y0152266D01*
X0160480Y0152266D01*
X0154181Y0140455D02*
X0154183Y0140613D01*
X0154189Y0140771D01*
X0154199Y0140929D01*
X0154213Y0141087D01*
X0154231Y0141244D01*
X0154252Y0141401D01*
X0154278Y0141557D01*
X0154308Y0141713D01*
X0154341Y0141868D01*
X0154379Y0142021D01*
X0154420Y0142174D01*
X0154465Y0142326D01*
X0154514Y0142477D01*
X0154567Y0142626D01*
X0154623Y0142774D01*
X0154683Y0142920D01*
X0154747Y0143065D01*
X0154815Y0143208D01*
X0154886Y0143350D01*
X0154960Y0143490D01*
X0155038Y0143627D01*
X0155120Y0143763D01*
X0155204Y0143897D01*
X0155293Y0144028D01*
X0155384Y0144157D01*
X0155479Y0144284D01*
X0155576Y0144409D01*
X0155677Y0144531D01*
X0155781Y0144650D01*
X0155888Y0144767D01*
X0155998Y0144881D01*
X0156111Y0144992D01*
X0156226Y0145101D01*
X0156344Y0145206D01*
X0156465Y0145308D01*
X0156588Y0145408D01*
X0156714Y0145504D01*
X0156842Y0145597D01*
X0156972Y0145687D01*
X0157105Y0145773D01*
X0157240Y0145857D01*
X0157376Y0145936D01*
X0157515Y0146013D01*
X0157656Y0146085D01*
X0157798Y0146155D01*
X0157942Y0146220D01*
X0158088Y0146282D01*
X0158235Y0146340D01*
X0158384Y0146395D01*
X0158534Y0146446D01*
X0158685Y0146493D01*
X0158837Y0146536D01*
X0158990Y0146575D01*
X0159145Y0146611D01*
X0159300Y0146642D01*
X0159456Y0146670D01*
X0159612Y0146694D01*
X0159769Y0146714D01*
X0159927Y0146730D01*
X0160084Y0146742D01*
X0160243Y0146750D01*
X0160401Y0146754D01*
X0160559Y0146754D01*
X0160717Y0146750D01*
X0160876Y0146742D01*
X0161033Y0146730D01*
X0161191Y0146714D01*
X0161348Y0146694D01*
X0161504Y0146670D01*
X0161660Y0146642D01*
X0161815Y0146611D01*
X0161970Y0146575D01*
X0162123Y0146536D01*
X0162275Y0146493D01*
X0162426Y0146446D01*
X0162576Y0146395D01*
X0162725Y0146340D01*
X0162872Y0146282D01*
X0163018Y0146220D01*
X0163162Y0146155D01*
X0163304Y0146085D01*
X0163445Y0146013D01*
X0163584Y0145936D01*
X0163720Y0145857D01*
X0163855Y0145773D01*
X0163988Y0145687D01*
X0164118Y0145597D01*
X0164246Y0145504D01*
X0164372Y0145408D01*
X0164495Y0145308D01*
X0164616Y0145206D01*
X0164734Y0145101D01*
X0164849Y0144992D01*
X0164962Y0144881D01*
X0165072Y0144767D01*
X0165179Y0144650D01*
X0165283Y0144531D01*
X0165384Y0144409D01*
X0165481Y0144284D01*
X0165576Y0144157D01*
X0165667Y0144028D01*
X0165756Y0143897D01*
X0165840Y0143763D01*
X0165922Y0143627D01*
X0166000Y0143490D01*
X0166074Y0143350D01*
X0166145Y0143208D01*
X0166213Y0143065D01*
X0166277Y0142920D01*
X0166337Y0142774D01*
X0166393Y0142626D01*
X0166446Y0142477D01*
X0166495Y0142326D01*
X0166540Y0142174D01*
X0166581Y0142021D01*
X0166619Y0141868D01*
X0166652Y0141713D01*
X0166682Y0141557D01*
X0166708Y0141401D01*
X0166729Y0141244D01*
X0166747Y0141087D01*
X0166761Y0140929D01*
X0166771Y0140771D01*
X0166777Y0140613D01*
X0166779Y0140455D01*
X0166777Y0140297D01*
X0166771Y0140139D01*
X0166761Y0139981D01*
X0166747Y0139823D01*
X0166729Y0139666D01*
X0166708Y0139509D01*
X0166682Y0139353D01*
X0166652Y0139197D01*
X0166619Y0139042D01*
X0166581Y0138889D01*
X0166540Y0138736D01*
X0166495Y0138584D01*
X0166446Y0138433D01*
X0166393Y0138284D01*
X0166337Y0138136D01*
X0166277Y0137990D01*
X0166213Y0137845D01*
X0166145Y0137702D01*
X0166074Y0137560D01*
X0166000Y0137420D01*
X0165922Y0137283D01*
X0165840Y0137147D01*
X0165756Y0137013D01*
X0165667Y0136882D01*
X0165576Y0136753D01*
X0165481Y0136626D01*
X0165384Y0136501D01*
X0165283Y0136379D01*
X0165179Y0136260D01*
X0165072Y0136143D01*
X0164962Y0136029D01*
X0164849Y0135918D01*
X0164734Y0135809D01*
X0164616Y0135704D01*
X0164495Y0135602D01*
X0164372Y0135502D01*
X0164246Y0135406D01*
X0164118Y0135313D01*
X0163988Y0135223D01*
X0163855Y0135137D01*
X0163720Y0135053D01*
X0163584Y0134974D01*
X0163445Y0134897D01*
X0163304Y0134825D01*
X0163162Y0134755D01*
X0163018Y0134690D01*
X0162872Y0134628D01*
X0162725Y0134570D01*
X0162576Y0134515D01*
X0162426Y0134464D01*
X0162275Y0134417D01*
X0162123Y0134374D01*
X0161970Y0134335D01*
X0161815Y0134299D01*
X0161660Y0134268D01*
X0161504Y0134240D01*
X0161348Y0134216D01*
X0161191Y0134196D01*
X0161033Y0134180D01*
X0160876Y0134168D01*
X0160717Y0134160D01*
X0160559Y0134156D01*
X0160401Y0134156D01*
X0160243Y0134160D01*
X0160084Y0134168D01*
X0159927Y0134180D01*
X0159769Y0134196D01*
X0159612Y0134216D01*
X0159456Y0134240D01*
X0159300Y0134268D01*
X0159145Y0134299D01*
X0158990Y0134335D01*
X0158837Y0134374D01*
X0158685Y0134417D01*
X0158534Y0134464D01*
X0158384Y0134515D01*
X0158235Y0134570D01*
X0158088Y0134628D01*
X0157942Y0134690D01*
X0157798Y0134755D01*
X0157656Y0134825D01*
X0157515Y0134897D01*
X0157376Y0134974D01*
X0157240Y0135053D01*
X0157105Y0135137D01*
X0156972Y0135223D01*
X0156842Y0135313D01*
X0156714Y0135406D01*
X0156588Y0135502D01*
X0156465Y0135602D01*
X0156344Y0135704D01*
X0156226Y0135809D01*
X0156111Y0135918D01*
X0155998Y0136029D01*
X0155888Y0136143D01*
X0155781Y0136260D01*
X0155677Y0136379D01*
X0155576Y0136501D01*
X0155479Y0136626D01*
X0155384Y0136753D01*
X0155293Y0136882D01*
X0155204Y0137013D01*
X0155120Y0137147D01*
X0155038Y0137283D01*
X0154960Y0137420D01*
X0154886Y0137560D01*
X0154815Y0137702D01*
X0154747Y0137845D01*
X0154683Y0137990D01*
X0154623Y0138136D01*
X0154567Y0138284D01*
X0154514Y0138433D01*
X0154465Y0138584D01*
X0154420Y0138736D01*
X0154379Y0138889D01*
X0154341Y0139042D01*
X0154308Y0139197D01*
X0154278Y0139353D01*
X0154252Y0139509D01*
X0154231Y0139666D01*
X0154213Y0139823D01*
X0154199Y0139981D01*
X0154189Y0140139D01*
X0154183Y0140297D01*
X0154181Y0140455D01*
X0160480Y0152266D02*
X0160765Y0152263D01*
X0161051Y0152252D01*
X0161336Y0152235D01*
X0161620Y0152211D01*
X0161904Y0152180D01*
X0162187Y0152142D01*
X0162468Y0152097D01*
X0162749Y0152046D01*
X0163029Y0151988D01*
X0163307Y0151923D01*
X0163583Y0151851D01*
X0163857Y0151773D01*
X0164130Y0151688D01*
X0164400Y0151596D01*
X0164668Y0151498D01*
X0164934Y0151394D01*
X0165197Y0151283D01*
X0165457Y0151166D01*
X0165715Y0151043D01*
X0165969Y0150913D01*
X0166220Y0150777D01*
X0166468Y0150636D01*
X0166712Y0150488D01*
X0166953Y0150335D01*
X0167189Y0150175D01*
X0167422Y0150010D01*
X0167651Y0149840D01*
X0167876Y0149664D01*
X0168096Y0149482D01*
X0168312Y0149296D01*
X0168523Y0149104D01*
X0168730Y0148907D01*
X0168932Y0148705D01*
X0169129Y0148498D01*
X0169321Y0148287D01*
X0169507Y0148071D01*
X0169689Y0147851D01*
X0169865Y0147626D01*
X0170035Y0147397D01*
X0170200Y0147164D01*
X0170360Y0146928D01*
X0170513Y0146687D01*
X0170661Y0146443D01*
X0170802Y0146195D01*
X0170938Y0145944D01*
X0171068Y0145690D01*
X0171191Y0145432D01*
X0171308Y0145172D01*
X0171419Y0144909D01*
X0171523Y0144643D01*
X0171621Y0144375D01*
X0171713Y0144105D01*
X0171798Y0143832D01*
X0171876Y0143558D01*
X0171948Y0143282D01*
X0172013Y0143004D01*
X0172071Y0142724D01*
X0172122Y0142443D01*
X0172167Y0142162D01*
X0172205Y0141879D01*
X0172236Y0141595D01*
X0172260Y0141311D01*
X0172277Y0141026D01*
X0172288Y0140740D01*
X0172291Y0140455D01*
X0172291Y0045967D01*
X0154181Y0045967D02*
X0154183Y0046125D01*
X0154189Y0046283D01*
X0154199Y0046441D01*
X0154213Y0046599D01*
X0154231Y0046756D01*
X0154252Y0046913D01*
X0154278Y0047069D01*
X0154308Y0047225D01*
X0154341Y0047380D01*
X0154379Y0047533D01*
X0154420Y0047686D01*
X0154465Y0047838D01*
X0154514Y0047989D01*
X0154567Y0048138D01*
X0154623Y0048286D01*
X0154683Y0048432D01*
X0154747Y0048577D01*
X0154815Y0048720D01*
X0154886Y0048862D01*
X0154960Y0049002D01*
X0155038Y0049139D01*
X0155120Y0049275D01*
X0155204Y0049409D01*
X0155293Y0049540D01*
X0155384Y0049669D01*
X0155479Y0049796D01*
X0155576Y0049921D01*
X0155677Y0050043D01*
X0155781Y0050162D01*
X0155888Y0050279D01*
X0155998Y0050393D01*
X0156111Y0050504D01*
X0156226Y0050613D01*
X0156344Y0050718D01*
X0156465Y0050820D01*
X0156588Y0050920D01*
X0156714Y0051016D01*
X0156842Y0051109D01*
X0156972Y0051199D01*
X0157105Y0051285D01*
X0157240Y0051369D01*
X0157376Y0051448D01*
X0157515Y0051525D01*
X0157656Y0051597D01*
X0157798Y0051667D01*
X0157942Y0051732D01*
X0158088Y0051794D01*
X0158235Y0051852D01*
X0158384Y0051907D01*
X0158534Y0051958D01*
X0158685Y0052005D01*
X0158837Y0052048D01*
X0158990Y0052087D01*
X0159145Y0052123D01*
X0159300Y0052154D01*
X0159456Y0052182D01*
X0159612Y0052206D01*
X0159769Y0052226D01*
X0159927Y0052242D01*
X0160084Y0052254D01*
X0160243Y0052262D01*
X0160401Y0052266D01*
X0160559Y0052266D01*
X0160717Y0052262D01*
X0160876Y0052254D01*
X0161033Y0052242D01*
X0161191Y0052226D01*
X0161348Y0052206D01*
X0161504Y0052182D01*
X0161660Y0052154D01*
X0161815Y0052123D01*
X0161970Y0052087D01*
X0162123Y0052048D01*
X0162275Y0052005D01*
X0162426Y0051958D01*
X0162576Y0051907D01*
X0162725Y0051852D01*
X0162872Y0051794D01*
X0163018Y0051732D01*
X0163162Y0051667D01*
X0163304Y0051597D01*
X0163445Y0051525D01*
X0163584Y0051448D01*
X0163720Y0051369D01*
X0163855Y0051285D01*
X0163988Y0051199D01*
X0164118Y0051109D01*
X0164246Y0051016D01*
X0164372Y0050920D01*
X0164495Y0050820D01*
X0164616Y0050718D01*
X0164734Y0050613D01*
X0164849Y0050504D01*
X0164962Y0050393D01*
X0165072Y0050279D01*
X0165179Y0050162D01*
X0165283Y0050043D01*
X0165384Y0049921D01*
X0165481Y0049796D01*
X0165576Y0049669D01*
X0165667Y0049540D01*
X0165756Y0049409D01*
X0165840Y0049275D01*
X0165922Y0049139D01*
X0166000Y0049002D01*
X0166074Y0048862D01*
X0166145Y0048720D01*
X0166213Y0048577D01*
X0166277Y0048432D01*
X0166337Y0048286D01*
X0166393Y0048138D01*
X0166446Y0047989D01*
X0166495Y0047838D01*
X0166540Y0047686D01*
X0166581Y0047533D01*
X0166619Y0047380D01*
X0166652Y0047225D01*
X0166682Y0047069D01*
X0166708Y0046913D01*
X0166729Y0046756D01*
X0166747Y0046599D01*
X0166761Y0046441D01*
X0166771Y0046283D01*
X0166777Y0046125D01*
X0166779Y0045967D01*
X0166777Y0045809D01*
X0166771Y0045651D01*
X0166761Y0045493D01*
X0166747Y0045335D01*
X0166729Y0045178D01*
X0166708Y0045021D01*
X0166682Y0044865D01*
X0166652Y0044709D01*
X0166619Y0044554D01*
X0166581Y0044401D01*
X0166540Y0044248D01*
X0166495Y0044096D01*
X0166446Y0043945D01*
X0166393Y0043796D01*
X0166337Y0043648D01*
X0166277Y0043502D01*
X0166213Y0043357D01*
X0166145Y0043214D01*
X0166074Y0043072D01*
X0166000Y0042932D01*
X0165922Y0042795D01*
X0165840Y0042659D01*
X0165756Y0042525D01*
X0165667Y0042394D01*
X0165576Y0042265D01*
X0165481Y0042138D01*
X0165384Y0042013D01*
X0165283Y0041891D01*
X0165179Y0041772D01*
X0165072Y0041655D01*
X0164962Y0041541D01*
X0164849Y0041430D01*
X0164734Y0041321D01*
X0164616Y0041216D01*
X0164495Y0041114D01*
X0164372Y0041014D01*
X0164246Y0040918D01*
X0164118Y0040825D01*
X0163988Y0040735D01*
X0163855Y0040649D01*
X0163720Y0040565D01*
X0163584Y0040486D01*
X0163445Y0040409D01*
X0163304Y0040337D01*
X0163162Y0040267D01*
X0163018Y0040202D01*
X0162872Y0040140D01*
X0162725Y0040082D01*
X0162576Y0040027D01*
X0162426Y0039976D01*
X0162275Y0039929D01*
X0162123Y0039886D01*
X0161970Y0039847D01*
X0161815Y0039811D01*
X0161660Y0039780D01*
X0161504Y0039752D01*
X0161348Y0039728D01*
X0161191Y0039708D01*
X0161033Y0039692D01*
X0160876Y0039680D01*
X0160717Y0039672D01*
X0160559Y0039668D01*
X0160401Y0039668D01*
X0160243Y0039672D01*
X0160084Y0039680D01*
X0159927Y0039692D01*
X0159769Y0039708D01*
X0159612Y0039728D01*
X0159456Y0039752D01*
X0159300Y0039780D01*
X0159145Y0039811D01*
X0158990Y0039847D01*
X0158837Y0039886D01*
X0158685Y0039929D01*
X0158534Y0039976D01*
X0158384Y0040027D01*
X0158235Y0040082D01*
X0158088Y0040140D01*
X0157942Y0040202D01*
X0157798Y0040267D01*
X0157656Y0040337D01*
X0157515Y0040409D01*
X0157376Y0040486D01*
X0157240Y0040565D01*
X0157105Y0040649D01*
X0156972Y0040735D01*
X0156842Y0040825D01*
X0156714Y0040918D01*
X0156588Y0041014D01*
X0156465Y0041114D01*
X0156344Y0041216D01*
X0156226Y0041321D01*
X0156111Y0041430D01*
X0155998Y0041541D01*
X0155888Y0041655D01*
X0155781Y0041772D01*
X0155677Y0041891D01*
X0155576Y0042013D01*
X0155479Y0042138D01*
X0155384Y0042265D01*
X0155293Y0042394D01*
X0155204Y0042525D01*
X0155120Y0042659D01*
X0155038Y0042795D01*
X0154960Y0042932D01*
X0154886Y0043072D01*
X0154815Y0043214D01*
X0154747Y0043357D01*
X0154683Y0043502D01*
X0154623Y0043648D01*
X0154567Y0043796D01*
X0154514Y0043945D01*
X0154465Y0044096D01*
X0154420Y0044248D01*
X0154379Y0044401D01*
X0154341Y0044554D01*
X0154308Y0044709D01*
X0154278Y0044865D01*
X0154252Y0045021D01*
X0154231Y0045178D01*
X0154213Y0045335D01*
X0154199Y0045493D01*
X0154189Y0045651D01*
X0154183Y0045809D01*
X0154181Y0045967D01*
X0160480Y0034156D02*
X0160765Y0034159D01*
X0161051Y0034170D01*
X0161336Y0034187D01*
X0161620Y0034211D01*
X0161904Y0034242D01*
X0162187Y0034280D01*
X0162468Y0034325D01*
X0162749Y0034376D01*
X0163029Y0034434D01*
X0163307Y0034499D01*
X0163583Y0034571D01*
X0163857Y0034649D01*
X0164130Y0034734D01*
X0164400Y0034826D01*
X0164668Y0034924D01*
X0164934Y0035028D01*
X0165197Y0035139D01*
X0165457Y0035256D01*
X0165715Y0035379D01*
X0165969Y0035509D01*
X0166220Y0035645D01*
X0166468Y0035786D01*
X0166712Y0035934D01*
X0166953Y0036087D01*
X0167189Y0036247D01*
X0167422Y0036412D01*
X0167651Y0036582D01*
X0167876Y0036758D01*
X0168096Y0036940D01*
X0168312Y0037126D01*
X0168523Y0037318D01*
X0168730Y0037515D01*
X0168932Y0037717D01*
X0169129Y0037924D01*
X0169321Y0038135D01*
X0169507Y0038351D01*
X0169689Y0038571D01*
X0169865Y0038796D01*
X0170035Y0039025D01*
X0170200Y0039258D01*
X0170360Y0039494D01*
X0170513Y0039735D01*
X0170661Y0039979D01*
X0170802Y0040227D01*
X0170938Y0040478D01*
X0171068Y0040732D01*
X0171191Y0040990D01*
X0171308Y0041250D01*
X0171419Y0041513D01*
X0171523Y0041779D01*
X0171621Y0042047D01*
X0171713Y0042317D01*
X0171798Y0042590D01*
X0171876Y0042864D01*
X0171948Y0043140D01*
X0172013Y0043418D01*
X0172071Y0043698D01*
X0172122Y0043979D01*
X0172167Y0044260D01*
X0172205Y0044543D01*
X0172236Y0044827D01*
X0172260Y0045111D01*
X0172277Y0045396D01*
X0172288Y0045682D01*
X0172291Y0045967D01*
X0160480Y0034156D02*
X0065992Y0034156D01*
X0059693Y0045967D02*
X0059695Y0046125D01*
X0059701Y0046283D01*
X0059711Y0046441D01*
X0059725Y0046599D01*
X0059743Y0046756D01*
X0059764Y0046913D01*
X0059790Y0047069D01*
X0059820Y0047225D01*
X0059853Y0047380D01*
X0059891Y0047533D01*
X0059932Y0047686D01*
X0059977Y0047838D01*
X0060026Y0047989D01*
X0060079Y0048138D01*
X0060135Y0048286D01*
X0060195Y0048432D01*
X0060259Y0048577D01*
X0060327Y0048720D01*
X0060398Y0048862D01*
X0060472Y0049002D01*
X0060550Y0049139D01*
X0060632Y0049275D01*
X0060716Y0049409D01*
X0060805Y0049540D01*
X0060896Y0049669D01*
X0060991Y0049796D01*
X0061088Y0049921D01*
X0061189Y0050043D01*
X0061293Y0050162D01*
X0061400Y0050279D01*
X0061510Y0050393D01*
X0061623Y0050504D01*
X0061738Y0050613D01*
X0061856Y0050718D01*
X0061977Y0050820D01*
X0062100Y0050920D01*
X0062226Y0051016D01*
X0062354Y0051109D01*
X0062484Y0051199D01*
X0062617Y0051285D01*
X0062752Y0051369D01*
X0062888Y0051448D01*
X0063027Y0051525D01*
X0063168Y0051597D01*
X0063310Y0051667D01*
X0063454Y0051732D01*
X0063600Y0051794D01*
X0063747Y0051852D01*
X0063896Y0051907D01*
X0064046Y0051958D01*
X0064197Y0052005D01*
X0064349Y0052048D01*
X0064502Y0052087D01*
X0064657Y0052123D01*
X0064812Y0052154D01*
X0064968Y0052182D01*
X0065124Y0052206D01*
X0065281Y0052226D01*
X0065439Y0052242D01*
X0065596Y0052254D01*
X0065755Y0052262D01*
X0065913Y0052266D01*
X0066071Y0052266D01*
X0066229Y0052262D01*
X0066388Y0052254D01*
X0066545Y0052242D01*
X0066703Y0052226D01*
X0066860Y0052206D01*
X0067016Y0052182D01*
X0067172Y0052154D01*
X0067327Y0052123D01*
X0067482Y0052087D01*
X0067635Y0052048D01*
X0067787Y0052005D01*
X0067938Y0051958D01*
X0068088Y0051907D01*
X0068237Y0051852D01*
X0068384Y0051794D01*
X0068530Y0051732D01*
X0068674Y0051667D01*
X0068816Y0051597D01*
X0068957Y0051525D01*
X0069096Y0051448D01*
X0069232Y0051369D01*
X0069367Y0051285D01*
X0069500Y0051199D01*
X0069630Y0051109D01*
X0069758Y0051016D01*
X0069884Y0050920D01*
X0070007Y0050820D01*
X0070128Y0050718D01*
X0070246Y0050613D01*
X0070361Y0050504D01*
X0070474Y0050393D01*
X0070584Y0050279D01*
X0070691Y0050162D01*
X0070795Y0050043D01*
X0070896Y0049921D01*
X0070993Y0049796D01*
X0071088Y0049669D01*
X0071179Y0049540D01*
X0071268Y0049409D01*
X0071352Y0049275D01*
X0071434Y0049139D01*
X0071512Y0049002D01*
X0071586Y0048862D01*
X0071657Y0048720D01*
X0071725Y0048577D01*
X0071789Y0048432D01*
X0071849Y0048286D01*
X0071905Y0048138D01*
X0071958Y0047989D01*
X0072007Y0047838D01*
X0072052Y0047686D01*
X0072093Y0047533D01*
X0072131Y0047380D01*
X0072164Y0047225D01*
X0072194Y0047069D01*
X0072220Y0046913D01*
X0072241Y0046756D01*
X0072259Y0046599D01*
X0072273Y0046441D01*
X0072283Y0046283D01*
X0072289Y0046125D01*
X0072291Y0045967D01*
X0072289Y0045809D01*
X0072283Y0045651D01*
X0072273Y0045493D01*
X0072259Y0045335D01*
X0072241Y0045178D01*
X0072220Y0045021D01*
X0072194Y0044865D01*
X0072164Y0044709D01*
X0072131Y0044554D01*
X0072093Y0044401D01*
X0072052Y0044248D01*
X0072007Y0044096D01*
X0071958Y0043945D01*
X0071905Y0043796D01*
X0071849Y0043648D01*
X0071789Y0043502D01*
X0071725Y0043357D01*
X0071657Y0043214D01*
X0071586Y0043072D01*
X0071512Y0042932D01*
X0071434Y0042795D01*
X0071352Y0042659D01*
X0071268Y0042525D01*
X0071179Y0042394D01*
X0071088Y0042265D01*
X0070993Y0042138D01*
X0070896Y0042013D01*
X0070795Y0041891D01*
X0070691Y0041772D01*
X0070584Y0041655D01*
X0070474Y0041541D01*
X0070361Y0041430D01*
X0070246Y0041321D01*
X0070128Y0041216D01*
X0070007Y0041114D01*
X0069884Y0041014D01*
X0069758Y0040918D01*
X0069630Y0040825D01*
X0069500Y0040735D01*
X0069367Y0040649D01*
X0069232Y0040565D01*
X0069096Y0040486D01*
X0068957Y0040409D01*
X0068816Y0040337D01*
X0068674Y0040267D01*
X0068530Y0040202D01*
X0068384Y0040140D01*
X0068237Y0040082D01*
X0068088Y0040027D01*
X0067938Y0039976D01*
X0067787Y0039929D01*
X0067635Y0039886D01*
X0067482Y0039847D01*
X0067327Y0039811D01*
X0067172Y0039780D01*
X0067016Y0039752D01*
X0066860Y0039728D01*
X0066703Y0039708D01*
X0066545Y0039692D01*
X0066388Y0039680D01*
X0066229Y0039672D01*
X0066071Y0039668D01*
X0065913Y0039668D01*
X0065755Y0039672D01*
X0065596Y0039680D01*
X0065439Y0039692D01*
X0065281Y0039708D01*
X0065124Y0039728D01*
X0064968Y0039752D01*
X0064812Y0039780D01*
X0064657Y0039811D01*
X0064502Y0039847D01*
X0064349Y0039886D01*
X0064197Y0039929D01*
X0064046Y0039976D01*
X0063896Y0040027D01*
X0063747Y0040082D01*
X0063600Y0040140D01*
X0063454Y0040202D01*
X0063310Y0040267D01*
X0063168Y0040337D01*
X0063027Y0040409D01*
X0062888Y0040486D01*
X0062752Y0040565D01*
X0062617Y0040649D01*
X0062484Y0040735D01*
X0062354Y0040825D01*
X0062226Y0040918D01*
X0062100Y0041014D01*
X0061977Y0041114D01*
X0061856Y0041216D01*
X0061738Y0041321D01*
X0061623Y0041430D01*
X0061510Y0041541D01*
X0061400Y0041655D01*
X0061293Y0041772D01*
X0061189Y0041891D01*
X0061088Y0042013D01*
X0060991Y0042138D01*
X0060896Y0042265D01*
X0060805Y0042394D01*
X0060716Y0042525D01*
X0060632Y0042659D01*
X0060550Y0042795D01*
X0060472Y0042932D01*
X0060398Y0043072D01*
X0060327Y0043214D01*
X0060259Y0043357D01*
X0060195Y0043502D01*
X0060135Y0043648D01*
X0060079Y0043796D01*
X0060026Y0043945D01*
X0059977Y0044096D01*
X0059932Y0044248D01*
X0059891Y0044401D01*
X0059853Y0044554D01*
X0059820Y0044709D01*
X0059790Y0044865D01*
X0059764Y0045021D01*
X0059743Y0045178D01*
X0059725Y0045335D01*
X0059711Y0045493D01*
X0059701Y0045651D01*
X0059695Y0045809D01*
X0059693Y0045967D01*
X0054181Y0045967D02*
X0054184Y0045682D01*
X0054195Y0045396D01*
X0054212Y0045111D01*
X0054236Y0044827D01*
X0054267Y0044543D01*
X0054305Y0044260D01*
X0054350Y0043979D01*
X0054401Y0043698D01*
X0054459Y0043418D01*
X0054524Y0043140D01*
X0054596Y0042864D01*
X0054674Y0042590D01*
X0054759Y0042317D01*
X0054851Y0042047D01*
X0054949Y0041779D01*
X0055053Y0041513D01*
X0055164Y0041250D01*
X0055281Y0040990D01*
X0055404Y0040732D01*
X0055534Y0040478D01*
X0055670Y0040227D01*
X0055811Y0039979D01*
X0055959Y0039735D01*
X0056112Y0039494D01*
X0056272Y0039258D01*
X0056437Y0039025D01*
X0056607Y0038796D01*
X0056783Y0038571D01*
X0056965Y0038351D01*
X0057151Y0038135D01*
X0057343Y0037924D01*
X0057540Y0037717D01*
X0057742Y0037515D01*
X0057949Y0037318D01*
X0058160Y0037126D01*
X0058376Y0036940D01*
X0058596Y0036758D01*
X0058821Y0036582D01*
X0059050Y0036412D01*
X0059283Y0036247D01*
X0059519Y0036087D01*
X0059760Y0035934D01*
X0060004Y0035786D01*
X0060252Y0035645D01*
X0060503Y0035509D01*
X0060757Y0035379D01*
X0061015Y0035256D01*
X0061275Y0035139D01*
X0061538Y0035028D01*
X0061804Y0034924D01*
X0062072Y0034826D01*
X0062342Y0034734D01*
X0062615Y0034649D01*
X0062889Y0034571D01*
X0063165Y0034499D01*
X0063443Y0034434D01*
X0063723Y0034376D01*
X0064004Y0034325D01*
X0064285Y0034280D01*
X0064568Y0034242D01*
X0064852Y0034211D01*
X0065136Y0034187D01*
X0065421Y0034170D01*
X0065707Y0034159D01*
X0065992Y0034156D01*
X0077409Y0055416D02*
X0077409Y0059944D01*
X0103197Y0059944D01*
X0103197Y0144589D01*
X0108512Y0144589D01*
X0108512Y0055416D01*
X0103197Y0055416D01*
X0077409Y0055416D01*
X0067075Y0085731D02*
X0067077Y0085812D01*
X0067083Y0085894D01*
X0067093Y0085975D01*
X0067107Y0086055D01*
X0067124Y0086134D01*
X0067146Y0086213D01*
X0067171Y0086290D01*
X0067200Y0086367D01*
X0067233Y0086441D01*
X0067270Y0086514D01*
X0067309Y0086585D01*
X0067353Y0086654D01*
X0067399Y0086721D01*
X0067449Y0086785D01*
X0067502Y0086847D01*
X0067558Y0086907D01*
X0067616Y0086963D01*
X0067678Y0087017D01*
X0067742Y0087068D01*
X0067808Y0087115D01*
X0067876Y0087159D01*
X0067947Y0087200D01*
X0068019Y0087237D01*
X0068094Y0087271D01*
X0068169Y0087301D01*
X0068247Y0087327D01*
X0068325Y0087350D01*
X0068404Y0087368D01*
X0068484Y0087383D01*
X0068565Y0087394D01*
X0068646Y0087401D01*
X0068728Y0087404D01*
X0068809Y0087403D01*
X0068890Y0087398D01*
X0068971Y0087389D01*
X0069052Y0087376D01*
X0069132Y0087359D01*
X0069210Y0087339D01*
X0069288Y0087314D01*
X0069365Y0087286D01*
X0069440Y0087254D01*
X0069513Y0087219D01*
X0069584Y0087180D01*
X0069654Y0087137D01*
X0069721Y0087092D01*
X0069787Y0087043D01*
X0069849Y0086991D01*
X0069909Y0086935D01*
X0069966Y0086877D01*
X0070021Y0086817D01*
X0070072Y0086753D01*
X0070120Y0086688D01*
X0070165Y0086620D01*
X0070207Y0086550D01*
X0070245Y0086478D01*
X0070280Y0086404D01*
X0070311Y0086329D01*
X0070338Y0086252D01*
X0070361Y0086174D01*
X0070381Y0086095D01*
X0070397Y0086015D01*
X0070409Y0085934D01*
X0070417Y0085853D01*
X0070421Y0085772D01*
X0070421Y0085690D01*
X0070417Y0085609D01*
X0070409Y0085528D01*
X0070397Y0085447D01*
X0070381Y0085367D01*
X0070361Y0085288D01*
X0070338Y0085210D01*
X0070311Y0085133D01*
X0070280Y0085058D01*
X0070245Y0084984D01*
X0070207Y0084912D01*
X0070165Y0084842D01*
X0070120Y0084774D01*
X0070072Y0084709D01*
X0070021Y0084645D01*
X0069966Y0084585D01*
X0069909Y0084527D01*
X0069849Y0084471D01*
X0069787Y0084419D01*
X0069721Y0084370D01*
X0069654Y0084325D01*
X0069585Y0084282D01*
X0069513Y0084243D01*
X0069440Y0084208D01*
X0069365Y0084176D01*
X0069288Y0084148D01*
X0069210Y0084123D01*
X0069132Y0084103D01*
X0069052Y0084086D01*
X0068971Y0084073D01*
X0068890Y0084064D01*
X0068809Y0084059D01*
X0068728Y0084058D01*
X0068646Y0084061D01*
X0068565Y0084068D01*
X0068484Y0084079D01*
X0068404Y0084094D01*
X0068325Y0084112D01*
X0068247Y0084135D01*
X0068169Y0084161D01*
X0068094Y0084191D01*
X0068019Y0084225D01*
X0067947Y0084262D01*
X0067876Y0084303D01*
X0067808Y0084347D01*
X0067742Y0084394D01*
X0067678Y0084445D01*
X0067616Y0084499D01*
X0067558Y0084555D01*
X0067502Y0084615D01*
X0067449Y0084677D01*
X0067399Y0084741D01*
X0067353Y0084808D01*
X0067309Y0084877D01*
X0067270Y0084948D01*
X0067233Y0085021D01*
X0067200Y0085095D01*
X0067171Y0085172D01*
X0067146Y0085249D01*
X0067124Y0085328D01*
X0067107Y0085407D01*
X0067093Y0085487D01*
X0067083Y0085568D01*
X0067077Y0085650D01*
X0067075Y0085731D01*
X0067075Y0100692D02*
X0067077Y0100773D01*
X0067083Y0100855D01*
X0067093Y0100936D01*
X0067107Y0101016D01*
X0067124Y0101095D01*
X0067146Y0101174D01*
X0067171Y0101251D01*
X0067200Y0101328D01*
X0067233Y0101402D01*
X0067270Y0101475D01*
X0067309Y0101546D01*
X0067353Y0101615D01*
X0067399Y0101682D01*
X0067449Y0101746D01*
X0067502Y0101808D01*
X0067558Y0101868D01*
X0067616Y0101924D01*
X0067678Y0101978D01*
X0067742Y0102029D01*
X0067808Y0102076D01*
X0067876Y0102120D01*
X0067947Y0102161D01*
X0068019Y0102198D01*
X0068094Y0102232D01*
X0068169Y0102262D01*
X0068247Y0102288D01*
X0068325Y0102311D01*
X0068404Y0102329D01*
X0068484Y0102344D01*
X0068565Y0102355D01*
X0068646Y0102362D01*
X0068728Y0102365D01*
X0068809Y0102364D01*
X0068890Y0102359D01*
X0068971Y0102350D01*
X0069052Y0102337D01*
X0069132Y0102320D01*
X0069210Y0102300D01*
X0069288Y0102275D01*
X0069365Y0102247D01*
X0069440Y0102215D01*
X0069513Y0102180D01*
X0069584Y0102141D01*
X0069654Y0102098D01*
X0069721Y0102053D01*
X0069787Y0102004D01*
X0069849Y0101952D01*
X0069909Y0101896D01*
X0069966Y0101838D01*
X0070021Y0101778D01*
X0070072Y0101714D01*
X0070120Y0101649D01*
X0070165Y0101581D01*
X0070207Y0101511D01*
X0070245Y0101439D01*
X0070280Y0101365D01*
X0070311Y0101290D01*
X0070338Y0101213D01*
X0070361Y0101135D01*
X0070381Y0101056D01*
X0070397Y0100976D01*
X0070409Y0100895D01*
X0070417Y0100814D01*
X0070421Y0100733D01*
X0070421Y0100651D01*
X0070417Y0100570D01*
X0070409Y0100489D01*
X0070397Y0100408D01*
X0070381Y0100328D01*
X0070361Y0100249D01*
X0070338Y0100171D01*
X0070311Y0100094D01*
X0070280Y0100019D01*
X0070245Y0099945D01*
X0070207Y0099873D01*
X0070165Y0099803D01*
X0070120Y0099735D01*
X0070072Y0099670D01*
X0070021Y0099606D01*
X0069966Y0099546D01*
X0069909Y0099488D01*
X0069849Y0099432D01*
X0069787Y0099380D01*
X0069721Y0099331D01*
X0069654Y0099286D01*
X0069585Y0099243D01*
X0069513Y0099204D01*
X0069440Y0099169D01*
X0069365Y0099137D01*
X0069288Y0099109D01*
X0069210Y0099084D01*
X0069132Y0099064D01*
X0069052Y0099047D01*
X0068971Y0099034D01*
X0068890Y0099025D01*
X0068809Y0099020D01*
X0068728Y0099019D01*
X0068646Y0099022D01*
X0068565Y0099029D01*
X0068484Y0099040D01*
X0068404Y0099055D01*
X0068325Y0099073D01*
X0068247Y0099096D01*
X0068169Y0099122D01*
X0068094Y0099152D01*
X0068019Y0099186D01*
X0067947Y0099223D01*
X0067876Y0099264D01*
X0067808Y0099308D01*
X0067742Y0099355D01*
X0067678Y0099406D01*
X0067616Y0099460D01*
X0067558Y0099516D01*
X0067502Y0099576D01*
X0067449Y0099638D01*
X0067399Y0099702D01*
X0067353Y0099769D01*
X0067309Y0099838D01*
X0067270Y0099909D01*
X0067233Y0099982D01*
X0067200Y0100056D01*
X0067171Y0100133D01*
X0067146Y0100210D01*
X0067124Y0100289D01*
X0067107Y0100368D01*
X0067093Y0100448D01*
X0067083Y0100529D01*
X0067077Y0100611D01*
X0067075Y0100692D01*
X0120815Y0048723D02*
X0120817Y0048804D01*
X0120823Y0048886D01*
X0120833Y0048967D01*
X0120847Y0049047D01*
X0120864Y0049126D01*
X0120886Y0049205D01*
X0120911Y0049282D01*
X0120940Y0049359D01*
X0120973Y0049433D01*
X0121010Y0049506D01*
X0121049Y0049577D01*
X0121093Y0049646D01*
X0121139Y0049713D01*
X0121189Y0049777D01*
X0121242Y0049839D01*
X0121298Y0049899D01*
X0121356Y0049955D01*
X0121418Y0050009D01*
X0121482Y0050060D01*
X0121548Y0050107D01*
X0121616Y0050151D01*
X0121687Y0050192D01*
X0121759Y0050229D01*
X0121834Y0050263D01*
X0121909Y0050293D01*
X0121987Y0050319D01*
X0122065Y0050342D01*
X0122144Y0050360D01*
X0122224Y0050375D01*
X0122305Y0050386D01*
X0122386Y0050393D01*
X0122468Y0050396D01*
X0122549Y0050395D01*
X0122630Y0050390D01*
X0122711Y0050381D01*
X0122792Y0050368D01*
X0122872Y0050351D01*
X0122950Y0050331D01*
X0123028Y0050306D01*
X0123105Y0050278D01*
X0123180Y0050246D01*
X0123253Y0050211D01*
X0123324Y0050172D01*
X0123394Y0050129D01*
X0123461Y0050084D01*
X0123527Y0050035D01*
X0123589Y0049983D01*
X0123649Y0049927D01*
X0123706Y0049869D01*
X0123761Y0049809D01*
X0123812Y0049745D01*
X0123860Y0049680D01*
X0123905Y0049612D01*
X0123947Y0049542D01*
X0123985Y0049470D01*
X0124020Y0049396D01*
X0124051Y0049321D01*
X0124078Y0049244D01*
X0124101Y0049166D01*
X0124121Y0049087D01*
X0124137Y0049007D01*
X0124149Y0048926D01*
X0124157Y0048845D01*
X0124161Y0048764D01*
X0124161Y0048682D01*
X0124157Y0048601D01*
X0124149Y0048520D01*
X0124137Y0048439D01*
X0124121Y0048359D01*
X0124101Y0048280D01*
X0124078Y0048202D01*
X0124051Y0048125D01*
X0124020Y0048050D01*
X0123985Y0047976D01*
X0123947Y0047904D01*
X0123905Y0047834D01*
X0123860Y0047766D01*
X0123812Y0047701D01*
X0123761Y0047637D01*
X0123706Y0047577D01*
X0123649Y0047519D01*
X0123589Y0047463D01*
X0123527Y0047411D01*
X0123461Y0047362D01*
X0123394Y0047317D01*
X0123325Y0047274D01*
X0123253Y0047235D01*
X0123180Y0047200D01*
X0123105Y0047168D01*
X0123028Y0047140D01*
X0122950Y0047115D01*
X0122872Y0047095D01*
X0122792Y0047078D01*
X0122711Y0047065D01*
X0122630Y0047056D01*
X0122549Y0047051D01*
X0122468Y0047050D01*
X0122386Y0047053D01*
X0122305Y0047060D01*
X0122224Y0047071D01*
X0122144Y0047086D01*
X0122065Y0047104D01*
X0121987Y0047127D01*
X0121909Y0047153D01*
X0121834Y0047183D01*
X0121759Y0047217D01*
X0121687Y0047254D01*
X0121616Y0047295D01*
X0121548Y0047339D01*
X0121482Y0047386D01*
X0121418Y0047437D01*
X0121356Y0047491D01*
X0121298Y0047547D01*
X0121242Y0047607D01*
X0121189Y0047669D01*
X0121139Y0047733D01*
X0121093Y0047800D01*
X0121049Y0047869D01*
X0121010Y0047940D01*
X0120973Y0048013D01*
X0120940Y0048087D01*
X0120911Y0048164D01*
X0120886Y0048241D01*
X0120864Y0048320D01*
X0120847Y0048399D01*
X0120833Y0048479D01*
X0120823Y0048560D01*
X0120817Y0048642D01*
X0120815Y0048723D01*
X0135776Y0048723D02*
X0135778Y0048804D01*
X0135784Y0048886D01*
X0135794Y0048967D01*
X0135808Y0049047D01*
X0135825Y0049126D01*
X0135847Y0049205D01*
X0135872Y0049282D01*
X0135901Y0049359D01*
X0135934Y0049433D01*
X0135971Y0049506D01*
X0136010Y0049577D01*
X0136054Y0049646D01*
X0136100Y0049713D01*
X0136150Y0049777D01*
X0136203Y0049839D01*
X0136259Y0049899D01*
X0136317Y0049955D01*
X0136379Y0050009D01*
X0136443Y0050060D01*
X0136509Y0050107D01*
X0136577Y0050151D01*
X0136648Y0050192D01*
X0136720Y0050229D01*
X0136795Y0050263D01*
X0136870Y0050293D01*
X0136948Y0050319D01*
X0137026Y0050342D01*
X0137105Y0050360D01*
X0137185Y0050375D01*
X0137266Y0050386D01*
X0137347Y0050393D01*
X0137429Y0050396D01*
X0137510Y0050395D01*
X0137591Y0050390D01*
X0137672Y0050381D01*
X0137753Y0050368D01*
X0137833Y0050351D01*
X0137911Y0050331D01*
X0137989Y0050306D01*
X0138066Y0050278D01*
X0138141Y0050246D01*
X0138214Y0050211D01*
X0138285Y0050172D01*
X0138355Y0050129D01*
X0138422Y0050084D01*
X0138488Y0050035D01*
X0138550Y0049983D01*
X0138610Y0049927D01*
X0138667Y0049869D01*
X0138722Y0049809D01*
X0138773Y0049745D01*
X0138821Y0049680D01*
X0138866Y0049612D01*
X0138908Y0049542D01*
X0138946Y0049470D01*
X0138981Y0049396D01*
X0139012Y0049321D01*
X0139039Y0049244D01*
X0139062Y0049166D01*
X0139082Y0049087D01*
X0139098Y0049007D01*
X0139110Y0048926D01*
X0139118Y0048845D01*
X0139122Y0048764D01*
X0139122Y0048682D01*
X0139118Y0048601D01*
X0139110Y0048520D01*
X0139098Y0048439D01*
X0139082Y0048359D01*
X0139062Y0048280D01*
X0139039Y0048202D01*
X0139012Y0048125D01*
X0138981Y0048050D01*
X0138946Y0047976D01*
X0138908Y0047904D01*
X0138866Y0047834D01*
X0138821Y0047766D01*
X0138773Y0047701D01*
X0138722Y0047637D01*
X0138667Y0047577D01*
X0138610Y0047519D01*
X0138550Y0047463D01*
X0138488Y0047411D01*
X0138422Y0047362D01*
X0138355Y0047317D01*
X0138286Y0047274D01*
X0138214Y0047235D01*
X0138141Y0047200D01*
X0138066Y0047168D01*
X0137989Y0047140D01*
X0137911Y0047115D01*
X0137833Y0047095D01*
X0137753Y0047078D01*
X0137672Y0047065D01*
X0137591Y0047056D01*
X0137510Y0047051D01*
X0137429Y0047050D01*
X0137347Y0047053D01*
X0137266Y0047060D01*
X0137185Y0047071D01*
X0137105Y0047086D01*
X0137026Y0047104D01*
X0136948Y0047127D01*
X0136870Y0047153D01*
X0136795Y0047183D01*
X0136720Y0047217D01*
X0136648Y0047254D01*
X0136577Y0047295D01*
X0136509Y0047339D01*
X0136443Y0047386D01*
X0136379Y0047437D01*
X0136317Y0047491D01*
X0136259Y0047547D01*
X0136203Y0047607D01*
X0136150Y0047669D01*
X0136100Y0047733D01*
X0136054Y0047800D01*
X0136010Y0047869D01*
X0135971Y0047940D01*
X0135934Y0048013D01*
X0135901Y0048087D01*
X0135872Y0048164D01*
X0135847Y0048241D01*
X0135825Y0048320D01*
X0135808Y0048399D01*
X0135794Y0048479D01*
X0135784Y0048560D01*
X0135778Y0048642D01*
X0135776Y0048723D01*
D11*
X0146937Y0065554D02*
X0152764Y0065554D01*
X0152764Y0067286D01*
X0153630Y0067286D02*
X0147803Y0067286D01*
X0147803Y0070042D01*
X0149063Y0070042D01*
X0149063Y0069018D01*
X0154969Y0069018D01*
X0149063Y0069018D02*
X0149063Y0067286D01*
X0146937Y0065554D02*
X0146888Y0065556D01*
X0146838Y0065562D01*
X0146790Y0065571D01*
X0146742Y0065585D01*
X0146696Y0065602D01*
X0146651Y0065623D01*
X0146608Y0065647D01*
X0146567Y0065674D01*
X0146528Y0065705D01*
X0146492Y0065739D01*
X0146458Y0065775D01*
X0146427Y0065814D01*
X0146400Y0065855D01*
X0146376Y0065898D01*
X0146355Y0065943D01*
X0146338Y0065989D01*
X0146324Y0066037D01*
X0146315Y0066085D01*
X0146309Y0066135D01*
X0146307Y0066184D01*
X0146307Y0073782D01*
X0147803Y0093211D02*
X0152934Y0093211D01*
X0156871Y0093211D02*
X0162003Y0093211D01*
X0165940Y0093211D02*
X0171071Y0093211D01*
X0175008Y0093211D02*
X0180139Y0093211D01*
X0184076Y0093211D02*
X0189207Y0093211D01*
X0193144Y0093211D02*
X0198276Y0093211D01*
X0198276Y0115672D01*
X0202016Y0115192D01*
X0202016Y0112916D01*
X0200992Y0112916D01*
X0200992Y0115322D01*
X0200992Y0112916D02*
X0200992Y0073507D01*
X0202016Y0073507D01*
X0202016Y0112916D01*
X0198276Y0115672D02*
X0198276Y0117877D01*
X0199260Y0117877D01*
X0198276Y0117877D02*
X0198276Y0119136D01*
X0169299Y0119136D01*
X0168748Y0117404D02*
X0198276Y0117404D01*
X0198276Y0119136D02*
X0199654Y0119136D01*
X0199654Y0119137D02*
X0199718Y0119139D01*
X0199782Y0119144D01*
X0199845Y0119154D01*
X0199908Y0119167D01*
X0199970Y0119183D01*
X0200031Y0119203D01*
X0200090Y0119227D01*
X0200149Y0119254D01*
X0200205Y0119285D01*
X0200260Y0119318D01*
X0200312Y0119355D01*
X0200362Y0119395D01*
X0200410Y0119437D01*
X0200456Y0119483D01*
X0200498Y0119531D01*
X0200538Y0119581D01*
X0200575Y0119633D01*
X0200608Y0119688D01*
X0200639Y0119744D01*
X0200666Y0119803D01*
X0200690Y0119862D01*
X0200710Y0119923D01*
X0200726Y0119985D01*
X0200739Y0120048D01*
X0200749Y0120111D01*
X0200754Y0120175D01*
X0200756Y0120239D01*
X0200756Y0121892D01*
X0202016Y0121892D01*
X0202016Y0119703D01*
X0202016Y0119704D02*
X0201973Y0119607D01*
X0201926Y0119511D01*
X0201876Y0119418D01*
X0201823Y0119326D01*
X0201767Y0119236D01*
X0201707Y0119148D01*
X0201644Y0119062D01*
X0201579Y0118979D01*
X0201510Y0118898D01*
X0201439Y0118819D01*
X0201365Y0118743D01*
X0201288Y0118670D01*
X0201209Y0118600D01*
X0201127Y0118532D01*
X0201043Y0118467D01*
X0200957Y0118405D01*
X0200868Y0118347D01*
X0200778Y0118291D01*
X0200685Y0118239D01*
X0200591Y0118190D01*
X0200495Y0118145D01*
X0200398Y0118102D01*
X0200299Y0118064D01*
X0200199Y0118029D01*
X0200098Y0117997D01*
X0199995Y0117969D01*
X0199892Y0117945D01*
X0199788Y0117924D01*
X0199683Y0117907D01*
X0199578Y0117894D01*
X0199472Y0117885D01*
X0199366Y0117879D01*
X0199260Y0117877D01*
X0198276Y0093211D02*
X0198276Y0070751D01*
X0202016Y0071231D01*
X0202016Y0073507D01*
X0200992Y0073507D02*
X0200992Y0071101D01*
X0198276Y0070751D02*
X0198276Y0069018D01*
X0168748Y0069018D01*
X0169299Y0067286D02*
X0198276Y0067286D01*
X0199654Y0067286D01*
X0199718Y0067284D01*
X0199782Y0067279D01*
X0199845Y0067269D01*
X0199908Y0067256D01*
X0199970Y0067240D01*
X0200031Y0067220D01*
X0200090Y0067196D01*
X0200149Y0067169D01*
X0200205Y0067138D01*
X0200260Y0067105D01*
X0200312Y0067068D01*
X0200362Y0067028D01*
X0200410Y0066986D01*
X0200456Y0066940D01*
X0200498Y0066892D01*
X0200538Y0066842D01*
X0200575Y0066790D01*
X0200608Y0066735D01*
X0200639Y0066679D01*
X0200666Y0066620D01*
X0200690Y0066561D01*
X0200710Y0066500D01*
X0200726Y0066438D01*
X0200739Y0066375D01*
X0200749Y0066312D01*
X0200754Y0066248D01*
X0200756Y0066184D01*
X0200756Y0064530D01*
X0202016Y0064530D01*
X0202016Y0066719D01*
X0201973Y0066816D01*
X0201926Y0066912D01*
X0201876Y0067005D01*
X0201823Y0067097D01*
X0201767Y0067187D01*
X0201707Y0067275D01*
X0201644Y0067361D01*
X0201579Y0067444D01*
X0201510Y0067525D01*
X0201439Y0067604D01*
X0201365Y0067680D01*
X0201288Y0067753D01*
X0201209Y0067823D01*
X0201127Y0067891D01*
X0201043Y0067956D01*
X0200957Y0068018D01*
X0200868Y0068076D01*
X0200778Y0068132D01*
X0200685Y0068184D01*
X0200591Y0068233D01*
X0200495Y0068278D01*
X0200398Y0068321D01*
X0200299Y0068359D01*
X0200199Y0068394D01*
X0200098Y0068426D01*
X0199995Y0068454D01*
X0199892Y0068478D01*
X0199788Y0068499D01*
X0199683Y0068516D01*
X0199578Y0068529D01*
X0199472Y0068538D01*
X0199366Y0068544D01*
X0199260Y0068546D01*
X0198276Y0068546D01*
X0198276Y0067286D01*
X0198276Y0068546D02*
X0198276Y0069018D01*
X0146307Y0112640D02*
X0146307Y0120239D01*
X0146309Y0120288D01*
X0146315Y0120338D01*
X0146324Y0120386D01*
X0146338Y0120434D01*
X0146355Y0120480D01*
X0146376Y0120525D01*
X0146400Y0120568D01*
X0146427Y0120609D01*
X0146458Y0120648D01*
X0146492Y0120684D01*
X0146528Y0120718D01*
X0146567Y0120749D01*
X0146608Y0120776D01*
X0146651Y0120800D01*
X0146696Y0120821D01*
X0146742Y0120838D01*
X0146790Y0120852D01*
X0146838Y0120861D01*
X0146888Y0120867D01*
X0146937Y0120869D01*
X0152764Y0120869D01*
X0152764Y0119136D01*
X0153630Y0119136D02*
X0147803Y0119136D01*
X0147803Y0116381D01*
X0149063Y0116381D01*
X0149063Y0119136D01*
X0149063Y0117404D02*
X0154969Y0117404D01*
X0146937Y0120869D02*
X0146888Y0120867D01*
X0146838Y0120861D01*
X0146790Y0120852D01*
X0146742Y0120838D01*
X0146696Y0120821D01*
X0146651Y0120800D01*
X0146608Y0120776D01*
X0146567Y0120749D01*
X0146528Y0120718D01*
X0146492Y0120684D01*
X0146458Y0120648D01*
X0146427Y0120609D01*
X0146400Y0120568D01*
X0146376Y0120525D01*
X0146355Y0120480D01*
X0146338Y0120434D01*
X0146324Y0120386D01*
X0146315Y0120338D01*
X0146309Y0120288D01*
X0146307Y0120239D01*
X0103726Y0039903D02*
X0106662Y0037701D01*
X0103726Y0035499D01*
X0100590Y0035499D02*
X0100590Y0037701D01*
X0102058Y0039169D01*
X0102058Y0039903D01*
X0100590Y0037701D02*
X0099122Y0039169D01*
X0099122Y0039903D01*
X0094518Y0039903D02*
X0094518Y0035499D01*
X0097454Y0035499D01*
X0092850Y0035499D02*
X0092850Y0039903D01*
X0089914Y0039903D02*
X0092850Y0035499D01*
X0089914Y0035499D02*
X0089914Y0039903D01*
X0088246Y0039169D02*
X0087512Y0039903D01*
X0086044Y0039903D01*
X0085310Y0039169D01*
X0085310Y0036233D01*
X0086044Y0035499D01*
X0087512Y0035499D01*
X0088246Y0036233D01*
X0088246Y0039169D01*
X0083642Y0039169D02*
X0083642Y0037701D01*
X0082908Y0036967D01*
X0080706Y0036967D01*
X0080706Y0035499D02*
X0080706Y0039903D01*
X0082908Y0039903D01*
X0083642Y0039169D01*
X0082174Y0036967D02*
X0083642Y0035499D01*
X0079038Y0035499D02*
X0079038Y0039903D01*
X0076102Y0039903D02*
X0076102Y0035499D01*
X0077570Y0036967D01*
X0079038Y0035499D01*
X0074434Y0037701D02*
X0073700Y0036967D01*
X0071498Y0036967D01*
X0071498Y0035499D02*
X0071498Y0039903D01*
X0073700Y0039903D01*
X0074434Y0039169D01*
X0074434Y0037701D01*
D12*
X0082041Y0065116D02*
X0082041Y0067368D01*
X0082792Y0068118D01*
X0084293Y0068118D01*
X0085044Y0067368D01*
X0085044Y0065116D01*
X0085044Y0066617D02*
X0086545Y0068118D01*
X0084293Y0069720D02*
X0084293Y0072722D01*
X0082041Y0071971D02*
X0084293Y0069720D01*
X0086545Y0071971D02*
X0082041Y0071971D01*
X0082041Y0065116D02*
X0086545Y0065116D01*
X0063415Y0065116D02*
X0058912Y0065116D01*
X0058912Y0067368D01*
X0059662Y0068118D01*
X0061163Y0068118D01*
X0061914Y0067368D01*
X0061914Y0065116D01*
X0061914Y0066617D02*
X0063415Y0068118D01*
X0062665Y0069720D02*
X0063415Y0070470D01*
X0063415Y0071971D01*
X0062665Y0072722D01*
X0061914Y0072722D01*
X0061163Y0071971D01*
X0061163Y0071221D01*
X0061163Y0071971D02*
X0060413Y0072722D01*
X0059662Y0072722D01*
X0058912Y0071971D01*
X0058912Y0070470D01*
X0059662Y0069720D01*
X0095746Y0087857D02*
X0095746Y0089359D01*
X0095746Y0088608D02*
X0100250Y0088608D01*
X0100250Y0087857D02*
X0100250Y0089359D01*
X0099499Y0090927D02*
X0100250Y0091677D01*
X0100250Y0093179D01*
X0099499Y0093929D01*
X0100250Y0095531D02*
X0100250Y0098533D01*
X0100250Y0097032D02*
X0095746Y0097032D01*
X0097247Y0095531D01*
X0096497Y0093929D02*
X0095746Y0093179D01*
X0095746Y0091677D01*
X0096497Y0090927D01*
X0099499Y0090927D01*
X0115020Y0107383D02*
X0114270Y0108134D01*
X0114270Y0109635D01*
X0115020Y0110386D01*
X0114270Y0111987D02*
X0116522Y0111987D01*
X0115771Y0113489D01*
X0115771Y0114239D01*
X0116522Y0114990D01*
X0118023Y0114990D01*
X0118774Y0114239D01*
X0118774Y0112738D01*
X0118023Y0111987D01*
X0118023Y0110386D02*
X0118774Y0109635D01*
X0118774Y0108134D01*
X0118023Y0107383D01*
X0115020Y0107383D01*
X0114270Y0111987D02*
X0114270Y0114990D01*
X0097766Y0122854D02*
X0097015Y0122103D01*
X0095514Y0122103D01*
X0094763Y0122854D01*
X0093162Y0122854D02*
X0092411Y0122103D01*
X0090910Y0122103D01*
X0090159Y0122854D01*
X0090159Y0125856D01*
X0090910Y0126607D01*
X0092411Y0126607D01*
X0093162Y0125856D01*
X0094763Y0125856D02*
X0095514Y0126607D01*
X0097015Y0126607D01*
X0097766Y0125856D01*
X0097766Y0125106D01*
X0097015Y0124355D01*
X0097766Y0123604D01*
X0097766Y0122854D01*
X0097015Y0124355D02*
X0096265Y0124355D01*
X0095656Y0128457D02*
X0094905Y0129208D01*
X0094905Y0130709D01*
X0097157Y0130709D01*
X0097908Y0129959D01*
X0097908Y0129208D01*
X0097157Y0128457D01*
X0095656Y0128457D01*
X0094905Y0130709D02*
X0096406Y0132211D01*
X0097908Y0132961D01*
X0093304Y0132211D02*
X0093304Y0130709D01*
X0092553Y0129959D01*
X0090301Y0129959D01*
X0091802Y0129959D02*
X0093304Y0128457D01*
X0090301Y0128457D02*
X0090301Y0132961D01*
X0092553Y0132961D01*
X0093304Y0132211D01*
X0113923Y0132911D02*
X0116175Y0132911D01*
X0116926Y0133662D01*
X0116926Y0135163D01*
X0116175Y0135914D01*
X0113923Y0135914D01*
X0113923Y0131410D01*
X0115425Y0132911D02*
X0116926Y0131410D01*
X0118527Y0132161D02*
X0119278Y0131410D01*
X0120779Y0131410D01*
X0121530Y0132161D01*
X0121530Y0133662D01*
X0120779Y0134413D01*
X0120028Y0134413D01*
X0118527Y0133662D01*
X0118527Y0135914D01*
X0121530Y0135914D01*
X0124750Y0136406D02*
X0127002Y0136406D01*
X0127753Y0135655D01*
X0127753Y0134154D01*
X0127002Y0133404D01*
X0124750Y0133404D01*
X0126251Y0133404D02*
X0127753Y0131902D01*
X0129354Y0131902D02*
X0129354Y0132653D01*
X0132356Y0135655D01*
X0132356Y0136406D01*
X0129354Y0136406D01*
X0124750Y0136406D02*
X0124750Y0131902D01*
X0141632Y0119849D02*
X0143884Y0117598D01*
X0143884Y0120600D01*
X0146136Y0119849D02*
X0141632Y0119849D01*
X0142383Y0115996D02*
X0141632Y0115245D01*
X0141632Y0113744D01*
X0142383Y0112994D01*
X0145385Y0112994D01*
X0146136Y0113744D01*
X0146136Y0115245D01*
X0145385Y0115996D01*
X0145900Y0124386D02*
X0146651Y0125137D01*
X0145900Y0124386D02*
X0144399Y0124386D01*
X0143648Y0125137D01*
X0143648Y0128140D01*
X0144399Y0128890D01*
X0145900Y0128890D01*
X0146651Y0128140D01*
X0148252Y0126638D02*
X0150504Y0126638D01*
X0151255Y0125888D01*
X0151255Y0125137D01*
X0150504Y0124386D01*
X0149003Y0124386D01*
X0148252Y0125137D01*
X0148252Y0126638D01*
X0149754Y0128140D01*
X0151255Y0128890D01*
X0168537Y0102008D02*
X0168537Y0099005D01*
X0168537Y0100507D02*
X0164034Y0100507D01*
X0165535Y0099005D01*
X0165535Y0097404D02*
X0164784Y0097404D01*
X0164034Y0096653D01*
X0164034Y0094401D01*
X0168537Y0094401D01*
X0168537Y0096653D01*
X0167787Y0097404D01*
X0167036Y0097404D01*
X0166285Y0096653D01*
X0166285Y0094401D01*
X0167036Y0092800D02*
X0167787Y0092800D01*
X0168537Y0092049D01*
X0168537Y0090548D01*
X0167787Y0089797D01*
X0167787Y0088196D02*
X0164034Y0088196D01*
X0164784Y0089797D02*
X0165535Y0089797D01*
X0166285Y0090548D01*
X0166285Y0092049D01*
X0167036Y0092800D01*
X0164784Y0092800D02*
X0164034Y0092049D01*
X0164034Y0090548D01*
X0164784Y0089797D01*
X0167787Y0088196D02*
X0168537Y0087445D01*
X0168537Y0085944D01*
X0167787Y0085194D01*
X0164034Y0085194D01*
X0166285Y0096653D02*
X0165535Y0097404D01*
X0123990Y0063989D02*
X0120988Y0063989D01*
X0122489Y0063989D02*
X0122489Y0068493D01*
X0120988Y0066991D01*
X0119386Y0066241D02*
X0119386Y0067742D01*
X0118636Y0068493D01*
X0116384Y0068493D01*
X0116384Y0063989D01*
X0116384Y0065490D02*
X0118636Y0065490D01*
X0119386Y0066241D01*
X0117885Y0065490D02*
X0119386Y0063989D01*
X0140990Y0059634D02*
X0140990Y0055131D01*
X0140990Y0056632D02*
X0143242Y0056632D01*
X0143993Y0057382D01*
X0143993Y0058884D01*
X0143242Y0059634D01*
X0140990Y0059634D01*
X0142491Y0056632D02*
X0143993Y0055131D01*
X0145594Y0055131D02*
X0148597Y0058133D01*
X0148597Y0058884D01*
X0147846Y0059634D01*
X0146345Y0059634D01*
X0145594Y0058884D01*
X0145594Y0055131D02*
X0148597Y0055131D01*
X0066806Y0111985D02*
X0063804Y0111985D01*
X0066806Y0114987D01*
X0066806Y0115738D01*
X0066055Y0116489D01*
X0064554Y0116489D01*
X0063804Y0115738D01*
X0062202Y0115738D02*
X0061452Y0116489D01*
X0059950Y0116489D01*
X0059200Y0115738D01*
X0059200Y0112736D01*
X0059950Y0111985D01*
X0061452Y0111985D01*
X0062202Y0112736D01*
X0061255Y0118481D02*
X0062005Y0119232D01*
X0061255Y0118481D02*
X0059753Y0118481D01*
X0059003Y0119232D01*
X0059003Y0122234D01*
X0059753Y0122985D01*
X0061255Y0122985D01*
X0062005Y0122234D01*
X0063607Y0121484D02*
X0065108Y0122985D01*
X0065108Y0118481D01*
X0063607Y0118481D02*
X0066609Y0118481D01*
D13*
X0093157Y0144392D03*
X0139417Y0144392D03*
D14*
X0131061Y0144392D02*
X0131061Y0140642D01*
X0131061Y0144392D02*
X0126061Y0144392D01*
X0131061Y0144392D02*
X0131061Y0148142D01*
X0084801Y0148142D02*
X0084801Y0144392D01*
X0079801Y0144392D01*
X0084801Y0144392D02*
X0084801Y0140642D01*
X0071898Y0108959D02*
X0071898Y0105022D01*
X0071827Y0108931D02*
X0067961Y0108931D01*
X0067961Y0108959D01*
X0056150Y0108959D02*
X0052213Y0108959D01*
X0071898Y0081400D02*
X0071898Y0077463D01*
X0067961Y0077463D01*
X0056150Y0077463D02*
X0052213Y0077463D01*
X0114220Y0051873D02*
X0118157Y0051873D01*
X0114248Y0051802D02*
X0114248Y0047936D01*
X0114220Y0047936D01*
X0114220Y0036125D02*
X0114220Y0032188D01*
X0141780Y0051873D02*
X0145717Y0051873D01*
X0145717Y0047936D01*
X0145717Y0036125D02*
X0145717Y0032188D01*
D15*
X0107823Y0042030D02*
X0107823Y0043605D01*
X0107823Y0042030D02*
X0107821Y0041968D01*
X0107815Y0041907D01*
X0107806Y0041846D01*
X0107792Y0041785D01*
X0107775Y0041726D01*
X0107754Y0041668D01*
X0107729Y0041611D01*
X0107701Y0041556D01*
X0107670Y0041503D01*
X0107635Y0041452D01*
X0107597Y0041403D01*
X0107556Y0041356D01*
X0107513Y0041313D01*
X0107466Y0041272D01*
X0107417Y0041234D01*
X0107366Y0041199D01*
X0107313Y0041168D01*
X0107258Y0041140D01*
X0107201Y0041115D01*
X0107143Y0041094D01*
X0107084Y0041077D01*
X0107023Y0041063D01*
X0106962Y0041054D01*
X0106901Y0041048D01*
X0106839Y0041046D01*
X0085185Y0041046D01*
X0085123Y0041048D01*
X0085062Y0041054D01*
X0085001Y0041063D01*
X0084940Y0041077D01*
X0084881Y0041094D01*
X0084823Y0041115D01*
X0084766Y0041140D01*
X0084711Y0041168D01*
X0084658Y0041199D01*
X0084607Y0041234D01*
X0084558Y0041272D01*
X0084511Y0041313D01*
X0084468Y0041356D01*
X0084427Y0041403D01*
X0084389Y0041452D01*
X0084354Y0041503D01*
X0084323Y0041556D01*
X0084295Y0041611D01*
X0084270Y0041668D01*
X0084249Y0041726D01*
X0084232Y0041785D01*
X0084218Y0041846D01*
X0084209Y0041907D01*
X0084203Y0041968D01*
X0084201Y0042030D01*
X0084201Y0043605D01*
X0090106Y0044983D02*
X0090106Y0050888D01*
X0101917Y0050888D01*
X0101917Y0044983D01*
X0090106Y0044983D01*
X0084201Y0052266D02*
X0084201Y0053841D01*
X0084203Y0053903D01*
X0084209Y0053964D01*
X0084218Y0054025D01*
X0084232Y0054086D01*
X0084249Y0054145D01*
X0084270Y0054203D01*
X0084295Y0054260D01*
X0084323Y0054315D01*
X0084354Y0054368D01*
X0084389Y0054419D01*
X0084427Y0054468D01*
X0084468Y0054515D01*
X0084511Y0054558D01*
X0084558Y0054599D01*
X0084607Y0054637D01*
X0084658Y0054672D01*
X0084711Y0054703D01*
X0084766Y0054731D01*
X0084823Y0054756D01*
X0084881Y0054777D01*
X0084940Y0054794D01*
X0085001Y0054808D01*
X0085062Y0054817D01*
X0085123Y0054823D01*
X0085185Y0054825D01*
X0106839Y0054825D01*
X0106901Y0054823D01*
X0106962Y0054817D01*
X0107023Y0054808D01*
X0107084Y0054794D01*
X0107143Y0054777D01*
X0107201Y0054756D01*
X0107258Y0054731D01*
X0107313Y0054703D01*
X0107366Y0054672D01*
X0107417Y0054637D01*
X0107466Y0054599D01*
X0107513Y0054558D01*
X0107556Y0054515D01*
X0107597Y0054468D01*
X0107635Y0054419D01*
X0107670Y0054368D01*
X0107701Y0054315D01*
X0107729Y0054260D01*
X0107754Y0054203D01*
X0107775Y0054145D01*
X0107792Y0054086D01*
X0107806Y0054025D01*
X0107815Y0053964D01*
X0107821Y0053903D01*
X0107823Y0053841D01*
X0107823Y0052266D01*
M02*
