%
M48
M72
T01C0.0120
T02C0.0236
T03C0.0335
T04C0.0394
T05C0.0906
T06C0.1260
%
T01
X11767Y5384
X12308Y5679
X13587Y5384
X12357Y7156
X15950Y7943
X13341Y10699
X13046Y11290
X12259Y12225
T02
X8223Y7549
X6993Y7943
X9011Y12422
X9700Y10896
T03
X11954Y4872
X13450Y4872
X6875Y8573
X6875Y10069
T04
X9052Y4351
X10052Y4351
T05
X16146Y6723
X16146Y11920
T06
X6993Y4990
X15654Y4990
X15654Y13652
X6993Y13652
M30
